<svg xmlns="http://www.w3.org/2000/svg" xmlns:xlink="http://www.w3.org/1999/xlink" width="71" height="71" viewBox="0 0 71 71">
  <defs>
    <linearGradient id="linear-gradient" y1="0.609" x2="0.965" y2="0.278" gradientUnits="objectBoundingBox">
      <stop offset="0" stop-color="#1e49e2"/>
      <stop offset="1" stop-color="#7213ea"/>
    </linearGradient>
  </defs>
  <g id="Gruppe_6" data-name="Gruppe 6" transform="translate(-31 -480)">
    <circle id="Ellipse_1" data-name="Ellipse 1" cx="35.5" cy="35.5" r="35.5" transform="translate(31 480)" fill="url(#linear-gradient)"/>
    <g id="noun-ai-5258822" transform="translate(-43.292 445.987)">
      <path id="Pfad_9" data-name="Pfad 9" d="M132.772,67.663q-.088,0-.175.006L130.609,60.3a2.807,2.807,0,1,0-3.262-4.474l-5.806-3.755a2.808,2.808,0,1,0-5.3-1.859l-7.538-.765a2.808,2.808,0,1,0-5.58.635L95.105,52.8a2.807,2.807,0,1,0-4.287,3.514L87.7,61.7a2.808,2.808,0,1,0-.33,5.414L89.713,72.6a2.807,2.807,0,1,0,3.8,4.045l4.04,2.027a2.808,2.808,0,1,0,5.519.733c0-.016,0-.032,0-.048l4.774-1.057a2.807,2.807,0,0,0,3.686,1.432l5.359,7.64a2.807,2.807,0,1,0,3.606-.4l2.4-5.8a2.808,2.808,0,0,0,3.339-2.757,2.788,2.788,0,0,0-.348-1.353l5.157-4.38a2.807,2.807,0,1,0,1.733-5.015ZM129.352,56.1a1.687,1.687,0,1,1-1.687,1.687A1.689,1.689,0,0,1,129.352,56.1Zm-1.978,3.677a2.817,2.817,0,0,0,.679.5l-4.41,15.336c-.073-.006-.147-.009-.222-.009a2.813,2.813,0,0,0-.326.019l-2.777-8.456a2.806,2.806,0,0,0,1.21-3.5Zm-8.447,6.637a1.687,1.687,0,1,1,1.687-1.686A1.689,1.689,0,0,1,118.928,66.415Zm2-13.406,5.806,3.755a2.808,2.808,0,0,0,.014,2.082l-5.846,3.892a2.8,2.8,0,0,0-1.417-.761V53.8a2.808,2.808,0,0,0,1.444-.788Zm-2-3.651a1.687,1.687,0,1,1-1.687,1.687A1.689,1.689,0,0,1,118.928,49.358Zm-1.73,3.9a2.8,2.8,0,0,0,1.169.541v8.18a2.8,2.8,0,0,0-1.137.517l-3.776-3.313a2.8,2.8,0,0,0,.02-2.751ZM107.626,66l2.685-5.494a2.8,2.8,0,0,0,2.4-.483l3.776,3.313a2.8,2.8,0,0,0,.421,3.344L111.5,74.571a2.808,2.808,0,0,0-1.829-.123l-2.022-4.02a2.806,2.806,0,0,0-.025-4.43ZM106.62,65.5a2.806,2.806,0,0,0-2.784.833l-3.167-1.879a2.8,2.8,0,0,0-.8-3.031l5.167-9.036a2.806,2.806,0,0,0,1.876-.042l2.16,3.413a2.8,2.8,0,0,0,.233,4.248Zm.982,2.718a1.687,1.687,0,1,1-1.687-1.687A1.689,1.689,0,0,1,107.6,68.223Zm1.728-10.436a1.687,1.687,0,1,1,1.686,1.686A1.689,1.689,0,0,1,109.33,57.787ZM108.6,50.56l7.537.765a2.785,2.785,0,0,0,.337,1.077l-3.724,3.174a2.8,2.8,0,0,0-2.727-.414l-2.16-3.413a2.819,2.819,0,0,0,.737-1.189Zm-2.681-2.522a1.687,1.687,0,1,1-1.687,1.687A1.689,1.689,0,0,1,105.915,48.038ZM95.489,54.219a2.8,2.8,0,0,0-.022-.354l8.024-2.725a2.821,2.821,0,0,0,.573.693L98.9,60.869a2.809,2.809,0,0,0-1.76,0l-2.6-4.543a2.8,2.8,0,0,0,.955-2.107ZM99.7,63.536a1.687,1.687,0,1,1-1.687-1.687A1.689,1.689,0,0,1,99.7,63.536Zm-7.022-11a1.687,1.687,0,1,1-1.687,1.686A1.689,1.689,0,0,1,92.681,52.533ZM86.812,66.047A1.687,1.687,0,1,1,88.5,64.361,1.689,1.689,0,0,1,86.812,66.047Zm1.594.624a2.8,2.8,0,0,0,.269-4.41l3.114-5.38a2.812,2.812,0,0,0,1.774,0l2.6,4.543a2.8,2.8,0,0,0-.027,4.191l-3.914,6.635a2.812,2.812,0,0,0-1.478-.1Zm2.9,9.926a1.687,1.687,0,1,1,1.686-1.687A1.689,1.689,0,0,1,91.307,76.6Zm1.88-3.77L97.1,66.192a2.805,2.805,0,0,0,2.994-.769l3.167,1.879a2.811,2.811,0,0,0-.083,1.558l-9.606,4.4a2.873,2.873,0,0,0-.387-.429Zm7.077,8.265a1.687,1.687,0,1,1,1.687-1.687A1.689,1.689,0,0,1,100.264,81.092Zm7.338-3.934c0,.016,0,.032,0,.048l-4.774,1.057a2.806,2.806,0,0,0-4.772-.592l-4.04-2.027a2.813,2.813,0,0,0,.025-1.369l9.606-4.4a2.805,2.805,0,0,0,3,1.056l2.022,4.02a2.8,2.8,0,0,0-1.071,2.2Zm2.808,1.687a1.687,1.687,0,1,1,1.687-1.687A1.689,1.689,0,0,1,110.41,78.845Zm7.425-11.53a2.808,2.808,0,0,0,1.419.2l2.777,8.456a2.82,2.82,0,0,0-1.294,1.616l-7.535-.726a2.8,2.8,0,0,0-.776-1.657Zm2.78,21.987a1.687,1.687,0,1,1-1.687-1.687A1.689,1.689,0,0,1,120.615,89.3Zm-1.155-2.757a2.807,2.807,0,0,0-1.653.183l-5.359-7.64a2.813,2.813,0,0,0,.647-1.107l7.535.726a2.811,2.811,0,0,0,1.225,2.034Zm3.963-6.446a1.687,1.687,0,1,1,1.687-1.687A1.689,1.689,0,0,1,123.422,80.1Zm6.542-9.627a2.788,2.788,0,0,0,.348,1.353l-5.157,4.38a2.821,2.821,0,0,0-.434-.281l4.41-15.336q.11.009.222.009.088,0,.175-.006l1.988,7.371a2.812,2.812,0,0,0-1.551,2.51Zm2.808,1.687a1.687,1.687,0,1,1,1.687-1.686A1.689,1.689,0,0,1,132.772,72.157Z" transform="translate(0)" fill="#fff"/>
    </g>
  </g>
</svg>
